<svg width="374" height="67" viewBox="0 0 374 67" fill="none" xmlns="http://www.w3.org/2000/svg">
<path d="M15.0281 35.8337C4.98493 35.8337 0 32.4615 0 25.7905V2.33205C0 0.939198 0.879693 0.132812 2.71239 0.132812C4.61839 0.132812 5.49808 0.865891 5.49808 2.33205V25.6439C5.49808 29.6758 8.72363 31.6552 15.248 31.6552H36.434C38.1201 31.6552 38.9997 32.3149 38.9997 33.7811C38.9997 35.1739 38.1934 35.907 36.434 35.907L15.0281 35.8337Z" fill="#434343"/>
<path d="M78.5867 35.8334C68.5435 35.8334 63.5586 32.5346 63.5586 26.0102V10.1024C63.5586 3.65132 68.4702 0.425781 78.2935 0.425781H85.6242C87.3103 0.425781 88.19 1.08555 88.19 2.55171C88.19 4.01786 87.3836 4.67763 85.6242 4.67763H78.4401C72.2089 4.67763 69.13 6.58364 69.13 10.249V16.0403H99.626C101.239 16.0403 102.118 16.7001 102.118 18.093C102.118 19.4125 101.312 20.1456 99.626 20.1456H69.13V26.0102C69.13 29.8955 72.3555 31.8015 78.8799 31.8015H99.626C101.385 31.8015 102.265 32.4613 102.265 33.9274C102.265 35.3936 101.385 36.0534 99.626 36.0534H78.5867V35.8334Z" fill="#434343"/>
<path d="M143.903 35.8334C133.933 35.8334 128.875 32.6079 128.875 26.0102V10.1757C128.875 3.65132 133.787 0.425781 143.61 0.425781H155.046C164.869 0.425781 169.781 3.65132 169.781 10.1757V26.0102C169.781 32.5346 164.796 35.8334 154.753 35.8334H143.903ZM164.209 10.3223C164.209 6.51033 161.13 4.60432 154.899 4.60432H143.756C137.525 4.60432 134.446 6.51033 134.446 10.3223V25.8636C134.446 29.7489 137.599 31.6549 143.903 31.6549H154.899C161.204 31.6549 164.356 29.7489 164.356 25.8636L164.209 10.3223Z" fill="#434343"/>
<path d="M212.372 35.8334C202.402 35.8334 197.344 32.6079 197.344 26.0102V10.1024C197.344 3.65132 202.255 0.425781 212.079 0.425781H231.652C233.338 0.425781 234.218 1.08555 234.218 2.55171C234.218 4.01786 233.411 4.67763 231.652 4.67763H212.225C205.994 4.67763 202.915 6.58364 202.915 10.249V25.9369C202.915 29.8222 206.141 31.7282 212.665 31.7282H231.725C233.411 31.7282 234.291 32.388 234.291 33.8541C234.291 35.247 233.484 35.9801 231.725 35.9801H212.445L212.372 35.8334Z" fill="#434343"/>
<path d="M295.502 26.3769H269.698L264.42 34.5873C263.76 35.5403 262.88 36.0535 261.781 36.0535C260.974 36.0535 260.241 35.8336 259.728 35.5403C259.215 35.1738 258.922 34.6607 258.922 34.0009C258.922 33.7076 258.995 33.4877 258.995 33.2678C259.068 33.0479 259.215 32.7547 259.435 32.4614L279.668 1.67215C279.961 1.15899 280.401 0.865759 280.841 0.645836C281.354 0.425912 281.867 0.279297 282.454 0.279297C283.627 0.279297 284.58 0.719144 285.166 1.67215L305.472 32.4614C305.766 32.828 305.912 33.1212 305.985 33.3411C306.059 33.561 306.132 33.8543 306.132 34.1475C306.132 34.8073 305.839 35.3204 305.326 35.687C304.813 36.0535 304.153 36.2001 303.273 36.2001C302.173 36.2001 301.294 35.687 300.634 34.734L295.502 26.3769ZM272.191 22.4183H292.937L282.527 6.29054L272.191 22.4183Z" fill="#434343"/>
<path d="M334.796 0.20612C335.309 0.20612 335.822 0.279428 336.188 0.499351C336.628 0.719275 336.995 1.01251 337.435 1.30574L368.224 28.5029V2.25874C368.224 0.86589 369.177 0.132812 371.01 0.132812C372.842 0.132812 373.795 0.792583 373.795 2.25874V33.9277C373.795 35.3206 372.842 36.1269 370.863 36.1269C370.277 36.1269 369.763 36.0536 369.397 35.8337C369.03 35.6138 368.59 35.3206 368.151 34.954L337.361 7.75682V34.001C337.361 35.3939 336.408 36.2002 334.576 36.2002C332.816 36.2002 331.863 35.4672 331.863 34.001V2.47866C331.937 0.939198 332.963 0.20612 334.796 0.20612Z" fill="#434343"/>
<path d="M0.220834 59.9516H38.854C38.9273 59.9516 39.0007 59.8783 39.0007 59.805V58.5587C39.0007 58.4854 38.9273 58.4121 38.854 58.4121H0.220834C0.147527 58.4121 0.0742188 58.4854 0.0742188 58.5587V59.805C0.0742188 59.8783 0.0742188 59.9516 0.220834 59.9516Z" fill="#434343"/>
<path d="M335.092 59.9516H373.725C373.798 59.9516 373.872 59.8783 373.872 59.805V58.5587C373.872 58.4854 373.798 58.4121 373.725 58.4121H335.092C335.019 58.4121 334.945 58.4854 334.945 58.5587V59.805C334.945 59.8783 335.019 59.9516 335.092 59.9516Z" fill="#434343"/>
<path d="M57.0352 53.7944H51.4638C50.804 53.7944 50.4375 53.5012 50.4375 52.988C50.4375 52.4749 50.804 52.1816 51.4638 52.1816H64.8058C65.4656 52.1816 65.8321 52.4749 65.8321 52.988C65.8321 53.5012 65.4656 53.8677 64.8058 53.8677H59.2344V65.597C59.2344 66.1834 58.8679 66.4767 58.1348 66.4767C57.4017 66.4767 57.0352 66.1834 57.0352 65.597V53.7944Z" fill="#434343"/>
<path d="M79.687 66.3291C75.6551 66.3291 73.6758 65.0096 73.6758 62.3705V55.9927C73.6758 53.427 75.6551 52.1074 79.5404 52.1074H82.4727C83.1325 52.1074 83.499 52.4007 83.499 52.9138C83.499 53.427 83.1325 53.7202 82.4727 53.7202H79.6137C77.1212 53.7202 75.9483 54.4533 75.9483 55.9194V58.2653H88.1174C88.7772 58.2653 89.0704 58.5585 89.0704 59.0717C89.0704 59.5848 88.7039 59.8781 88.1174 59.8781H75.875V62.2239C75.875 63.7634 77.1212 64.5697 79.7603 64.5697H88.0441C88.7039 64.5697 89.0704 64.863 89.0704 65.3761C89.0704 65.8893 88.7039 66.1825 88.0441 66.1825L79.687 66.3291Z" fill="#434343"/>
<path d="M103.804 66.3291C99.7723 66.3291 97.793 65.0096 97.793 62.3705V55.9927C97.793 53.427 99.7723 52.1074 103.658 52.1074H111.502C112.161 52.1074 112.528 52.4007 112.528 52.9138C112.528 53.427 112.161 53.7202 111.502 53.7202H103.731C101.238 53.7202 100.066 54.4533 100.066 55.9194V62.2239C100.066 63.7634 101.312 64.5697 103.951 64.5697H111.575C112.235 64.5697 112.601 64.863 112.601 65.3761C112.601 65.8893 112.235 66.1825 111.575 66.1825L103.804 66.3291Z" fill="#434343"/>
<path d="M135.841 60.1723H123.379V65.5238C123.379 66.1103 123.012 66.4035 122.279 66.4035C121.546 66.4035 121.18 66.1103 121.18 65.5238V52.9149C121.18 52.3284 121.546 52.0352 122.279 52.0352C123.012 52.0352 123.306 52.3284 123.306 52.9149V58.4862H135.768V52.9149C135.768 52.3284 136.134 52.1085 136.868 52.1085C137.601 52.1085 137.967 52.4017 137.967 52.9149V65.5238C137.967 66.1103 137.601 66.4035 136.868 66.4035C136.134 66.4035 135.768 66.1103 135.768 65.5238L135.841 60.1723Z" fill="#434343"/>
<path d="M148.376 52.0352C148.596 52.0352 148.816 52.1085 148.963 52.1818C149.109 52.2551 149.329 52.4017 149.476 52.5483L161.791 63.3979V52.8415C161.791 52.2551 162.158 52.0352 162.891 52.0352C163.624 52.0352 163.991 52.3284 163.991 52.8415V65.5238C163.991 66.1103 163.624 66.4035 162.818 66.4035C162.598 66.4035 162.378 66.3302 162.231 66.2569C162.085 66.1836 161.865 66.0369 161.718 65.8903L149.402 55.0408V65.5238C149.402 66.1103 149.036 66.4035 148.303 66.4035C147.57 66.4035 147.203 66.1103 147.203 65.5238V52.9149C147.203 52.3284 147.57 52.0352 148.376 52.0352Z" fill="#434343"/>
<path d="M179.093 66.33C175.061 66.33 173.082 65.0105 173.082 62.3714V56.067C173.082 53.4279 175.061 52.1816 178.947 52.1816H183.492C187.45 52.1816 189.356 53.4279 189.356 56.067V62.3714C189.356 65.0105 187.304 66.33 183.345 66.33H179.093ZM187.23 56.067C187.23 54.6008 185.984 53.7944 183.565 53.7944H179.093C176.601 53.7944 175.428 54.5275 175.428 56.067V62.2981C175.428 63.8376 176.674 64.644 179.24 64.644H183.638C186.131 64.644 187.45 63.8376 187.45 62.2981V56.067H187.23Z" fill="#434343"/>
<path d="M204.457 66.3302C200.425 66.3302 198.445 65.0106 198.445 62.2982V52.9149C198.445 52.3284 198.812 52.0352 199.545 52.0352C200.278 52.0352 200.645 52.3284 200.645 52.9149V62.2249C200.645 63.7644 201.891 64.6441 204.53 64.6441H212.96C213.62 64.6441 213.987 64.9373 213.987 65.4505C213.987 65.9636 213.62 66.2569 212.96 66.2569L204.457 66.3302Z" fill="#434343"/>
<path d="M227.843 66.33C223.811 66.33 221.832 65.0105 221.832 62.3714V56.067C221.832 53.4279 223.811 52.1816 227.697 52.1816H232.242C236.2 52.1816 238.106 53.4279 238.106 56.067V62.3714C238.106 65.0105 236.054 66.33 232.095 66.33H227.843ZM236.054 56.067C236.054 54.6008 234.808 53.7944 232.388 53.7944H227.917C225.424 53.7944 224.251 54.5275 224.251 56.067V62.2981C224.251 63.8376 225.497 64.644 228.063 64.644H232.462C234.954 64.644 236.274 63.8376 236.274 62.2981V56.067H236.054Z" fill="#434343"/>
<path d="M253.207 66.33C249.175 66.33 247.195 65.0105 247.195 62.2981V55.9936C247.195 53.4279 249.175 52.1816 253.06 52.1816H255.846C256.505 52.1816 256.872 52.4749 256.872 52.988C256.872 53.5012 256.505 53.7944 255.846 53.7944H253.06C250.567 53.7944 249.395 54.5275 249.395 55.9936V62.2248C249.395 63.7643 250.641 64.644 253.28 64.644H257.678C260.244 64.644 261.564 63.8376 261.564 62.2248V58.3395C261.564 57.753 261.93 57.4598 262.663 57.4598C263.396 57.4598 263.763 57.753 263.763 58.3395V62.2981C263.763 64.9372 261.71 66.33 257.752 66.33H253.207Z" fill="#434343"/>
<path d="M272.927 52.9149C272.927 52.3284 273.293 52.0352 274.026 52.0352C274.76 52.0352 275.053 52.3284 275.053 52.9149V65.5238C275.053 66.1103 274.686 66.4035 273.953 66.4035C273.22 66.4035 272.854 66.1103 272.854 65.5238L272.927 52.9149Z" fill="#434343"/>
<path d="M290.228 66.3291C286.196 66.3291 284.217 65.0096 284.217 62.3705V55.9927C284.217 53.427 286.196 52.1074 290.081 52.1074H293.014C293.674 52.1074 294.04 52.4007 294.04 52.9138C294.04 53.427 293.674 53.7202 293.014 53.7202H290.081C287.589 53.7202 286.416 54.4533 286.416 55.9194V58.2653H298.585C299.245 58.2653 299.538 58.5585 299.538 59.0717C299.538 59.5848 299.172 59.8781 298.585 59.8781H286.416V62.2239C286.416 63.7634 287.662 64.5697 290.301 64.5697H298.585C299.245 64.5697 299.611 64.863 299.611 65.3761C299.611 65.8893 299.245 66.1825 298.585 66.1825L290.228 66.3291Z" fill="#434343"/>
<path d="M323.436 63.0321C323.436 65.2313 321.383 66.2576 317.205 66.2576H308.921C308.261 66.2576 307.895 65.9644 307.895 65.4513C307.895 64.8648 308.261 64.6449 308.921 64.6449H317.205C319.844 64.6449 321.237 64.0584 321.237 62.9588V61.4926C321.237 60.393 319.99 59.8799 317.425 59.8799H313.539C309.874 59.8799 307.968 58.8536 307.968 56.8742V55.4081C307.968 53.2822 309.874 52.2559 313.686 52.2559H315.958C316.618 52.2559 316.985 52.5491 316.985 53.0622C316.985 53.5754 316.618 53.8686 315.958 53.8686H313.686C311.34 53.8686 310.167 54.3818 310.167 55.4081V56.6543C310.167 57.6806 311.267 58.1205 313.539 58.1205H317.205C321.31 58.1205 323.362 59.2201 323.362 61.346L323.436 63.0321Z" fill="#434343"/>
</svg>
